<svg xmlns="http://www.w3.org/2000/svg" viewBox="0 0 117.98 74.17"><defs><style>.cls-1{fill:#3778c2;}.cls-2{fill:#5fb523;}.cls-3{fill:#87c241;}</style></defs><g id="Layer_2" data-name="Layer 2"><g id="OBJECTS"><path class="cls-1" d="M0,50.53a7,7,0,0,1,7.27-7.19,6.38,6.38,0,0,1,5.43,2.47L10.34,48a3.32,3.32,0,0,0-2.9-1.48,3.67,3.67,0,0,0-3.72,4,3.7,3.7,0,0,0,3.72,4,3.46,3.46,0,0,0,2.9-1.48l2.36,2.19a6.34,6.34,0,0,1-5.43,2.5A7,7,0,0,1,0,50.53Z"/><path class="cls-1" d="M23.3,57.41V56A5.69,5.69,0,0,1,19,57.75a4.57,4.57,0,0,1-4.77-4.55c0-3.21,2.58-4.43,4.77-4.43a5.65,5.65,0,0,1,4.35,1.67V48.6c0-1.39-1.2-2.3-3-2.3a5.76,5.76,0,0,0-4,1.62L14.91,45.5a9,9,0,0,1,6-2.16c3.12,0,6,1.25,6,5.2v8.87Zm0-3.3V52.4a3.64,3.64,0,0,0-2.9-1.19c-1.42,0-2.59.74-2.59,2.08s1.17,2,2.59,2A3.61,3.61,0,0,0,23.3,54.11Z"/><path class="cls-1" d="M29.29,55.62l1.56-2.53A7.91,7.91,0,0,0,35.6,55c1.56,0,2.3-.62,2.3-1.48,0-2.27-8.16-.42-8.16-5.82,0-2.3,2-4.32,5.63-4.32a8.76,8.76,0,0,1,5.54,1.88l-1.45,2.47A5.79,5.79,0,0,0,35.4,46.1c-1.31,0-2.16.59-2.16,1.36,0,2,8.12.34,8.12,5.88,0,2.5-2.13,4.41-5.93,4.41A9.27,9.27,0,0,1,29.29,55.62Z"/><path class="cls-1" d="M53.32,57.41V49.05c0-1.9-1-2.5-2.55-2.5a4,4,0,0,0-3.13,1.62v9.24H44v-19h3.61v7a6.36,6.36,0,0,1,4.83-2.13c3,0,4.46,1.65,4.46,4.32v9.75Z"/><path class="cls-2" d="M64.06,57.41v-19h3.61v7a5.28,5.28,0,0,1,4.23-2.1c3.5,0,6.08,2.73,6.08,7.22s-2.61,7.19-6.08,7.19a5.31,5.31,0,0,1-4.23-2.11v1.77Zm6.7-2.87c2.11,0,3.5-1.6,3.5-4s-1.39-4-3.5-4a4,4,0,0,0-3.09,1.59V53A4,4,0,0,0,70.76,54.54Z"/><path class="cls-2" d="M80.76,59.54a3.21,3.21,0,0,0,1.14.22,1.81,1.81,0,0,0,1.9-1l.51-1.17L78.75,43.68h3.86l3.58,9.55,3.58-9.55h3.89l-6.45,16c-1,2.59-2.84,3.27-5.2,3.32a9.44,9.44,0,0,1-1.79-.2Z"/><path class="cls-2" d="M96,54V46.84H93.72V43.68H96V39.93h3.64v3.75h2.78v3.16H99.63V53c0,.85.45,1.51,1.25,1.51a2,2,0,0,0,1.25-.4l.76,2.73a4.46,4.46,0,0,1-3,.88C97.35,57.75,96,56.44,96,54Z"/><path class="cls-2" d="M104,50.53a7,7,0,0,1,7.1-7.19c4.09,0,6.88,3.07,6.88,7.56v.79h-10.2a3.7,3.7,0,0,0,4,3.19,5.8,5.8,0,0,0,3.66-1.37L117,55.84a8.54,8.54,0,0,1-5.65,1.91A7,7,0,0,1,104,50.53Zm7.1-4.32a3.3,3.3,0,0,0-3.38,3h6.76A3.17,3.17,0,0,0,111.1,46.21Z"/><path class="cls-3" d="M10.88,70.23A2.17,2.17,0,0,1,13,68a2.11,2.11,0,0,1,2.09,2.33v.17H11.59A1.53,1.53,0,0,0,13.16,72a1.87,1.87,0,0,0,1.34-.55l.32.45a2.35,2.35,0,0,1-1.73.66A2.16,2.16,0,0,1,10.88,70.23ZM13,68.51A1.45,1.45,0,0,0,11.59,70h2.86A1.42,1.42,0,0,0,13,68.51Z"/><path class="cls-3" d="M18.26,72.4l-1.81-4.34h.73l1.45,3.56,1.44-3.56h.74L19,72.4Z"/><path class="cls-3" d="M22.16,70.23A2.17,2.17,0,0,1,24.3,68a2.11,2.11,0,0,1,2.09,2.33v.17H22.87A1.52,1.52,0,0,0,24.43,72a1.89,1.89,0,0,0,1.35-.55l.32.45a2.37,2.37,0,0,1-1.73.66A2.15,2.15,0,0,1,22.16,70.23Zm2.13-1.72A1.44,1.44,0,0,0,22.87,70h2.85A1.41,1.41,0,0,0,24.29,68.51Z"/><path class="cls-3" d="M28.38,72.4V68.06h.67v.7A1.85,1.85,0,0,1,30.5,68v.69a1.06,1.06,0,0,0-.27,0,1.6,1.6,0,0,0-1.18.69V72.4Z"/><path class="cls-3" d="M32.11,73.49a.94.94,0,0,0,.37.07.62.62,0,0,0,.65-.45l.29-.66L31.6,68.06h.73l1.45,3.56,1.44-3.56H36l-2.17,5.23a1.31,1.31,0,0,1-1.28.88,2.63,2.63,0,0,1-.5-.06Z"/><path class="cls-3" d="M37.69,71.49V68.65H37v-.59h.72V66.87h.68v1.19h.88v.59h-.88v2.7c0,.32.14.56.44.56a.65.65,0,0,0,.46-.18l.19.5a1.1,1.1,0,0,1-.81.28C38,72.51,37.69,72.14,37.69,71.49Z"/><path class="cls-3" d="M44.05,72.4V69.54c0-.76-.4-1-1-1a1.67,1.67,0,0,0-1.28.68V72.4H41.1v-6h.68v2.29A2.15,2.15,0,0,1,43.33,68a1.22,1.22,0,0,1,1.39,1.38V72.4Z"/><path class="cls-3" d="M46.85,67a.46.46,0,1,1,.91,0,.46.46,0,0,1-.91,0ZM47,72.4V68.06h.67V72.4Z"/><path class="cls-3" d="M52.83,72.4V69.56c0-.77-.39-1-1-1a1.66,1.66,0,0,0-1.29.68V72.4h-.68V68.06h.68v.63A2.17,2.17,0,0,1,52.12,68a1.23,1.23,0,0,1,1.38,1.4V72.4Z"/><path class="cls-3" d="M55.74,73.52l.35-.5a1.66,1.66,0,0,0,1.41.59,1.24,1.24,0,0,0,1.39-1.31v-.62a1.8,1.8,0,0,1-1.45.78,2,2,0,0,1-1.94-2.25c0-1.4.79-2.26,1.94-2.26a1.81,1.81,0,0,1,1.45.76v-.65h.68v4.22c0,1.44-1,1.89-2.07,1.89A2.25,2.25,0,0,1,55.74,73.52Zm3.15-2.37v-1.9a1.58,1.58,0,0,0-1.29-.7c-.87,0-1.4.69-1.4,1.66a1.46,1.46,0,0,0,1.4,1.65A1.59,1.59,0,0,0,58.89,71.15Z"/><path class="cls-3" d="M64.91,73.49a.94.94,0,0,0,.37.07.61.61,0,0,0,.64-.45l.29-.66-1.82-4.39h.73l1.45,3.56L68,68.06h.74l-2.18,5.23a1.29,1.29,0,0,1-1.28.88,2.53,2.53,0,0,1-.49-.06Z"/><path class="cls-3" d="M70.1,70.23a2.15,2.15,0,1,1,2.15,2.28A2.13,2.13,0,0,1,70.1,70.23Zm3.59,0a1.46,1.46,0,1,0-1.44,1.68A1.51,1.51,0,0,0,73.69,70.23Z"/><path class="cls-3" d="M79.33,72.4v-.61a2.11,2.11,0,0,1-1.54.72,1.22,1.22,0,0,1-1.39-1.38V68.06h.67v2.86c0,.76.39,1,1,1a1.65,1.65,0,0,0,1.28-.66V68.06H80V72.4Z"/><path class="cls-3" d="M88.41,72.4V69.56c0-.77-.38-1-1-1a1.64,1.64,0,0,0-1.28.68V72.4h-.68V68.06h.68v.63A2.12,2.12,0,0,1,87.7,68a1.24,1.24,0,0,1,1.39,1.4V72.4Z"/><path class="cls-3" d="M91.09,70.23A2.17,2.17,0,0,1,93.23,68a2.11,2.11,0,0,1,2.09,2.33v.17H91.8A1.52,1.52,0,0,0,93.36,72a1.89,1.89,0,0,0,1.35-.55l.32.45a2.37,2.37,0,0,1-1.73.66A2.15,2.15,0,0,1,91.09,70.23Zm2.13-1.72A1.44,1.44,0,0,0,91.8,70h2.85A1.41,1.41,0,0,0,93.22,68.51Z"/><path class="cls-3" d="M97.05,70.23A2.17,2.17,0,0,1,99.2,68a2.1,2.1,0,0,1,2.08,2.33v.17H97.76A1.54,1.54,0,0,0,99.33,72a1.85,1.85,0,0,0,1.34-.55l.33.45a2.38,2.38,0,0,1-1.73.66A2.16,2.16,0,0,1,97.05,70.23Zm2.14-1.72A1.46,1.46,0,0,0,97.76,70h2.86A1.41,1.41,0,0,0,99.19,68.51Z"/><path class="cls-3" d="M106.42,72.4v-.64a1.81,1.81,0,0,1-1.46.75c-1.14,0-1.94-.86-1.94-2.28A2,2,0,0,1,105,68a1.82,1.82,0,0,1,1.46.76V66.4h.68v6Zm0-1.18v-2a1.61,1.61,0,0,0-1.3-.7c-.88,0-1.4.72-1.4,1.68s.52,1.68,1.4,1.68A1.6,1.6,0,0,0,106.42,71.22Z"/><path class="cls-2" d="M54.94,28.75a16.83,16.83,0,0,0,4.05,3,16.88,16.88,0,0,1-18-1.47l-5.39,2.1L37.7,27A16.84,16.84,0,0,1,59,1.94a16.85,16.85,0,0,0-4.05,26.81Z"/><path class="cls-1" d="M67.8,14.41l-.09,0v-.48Z"/><path class="cls-1" d="M67.85,18.81c0,.32-.08.64-.14,1v-1Z"/><path class="cls-2" d="M67.85,18.81c0,.32-.08.64-.14,1v-1Z"/><path class="cls-2" d="M67.71,13.91v.48l.09,0Z"/><path class="cls-1" d="M78.76,4.93A16.85,16.85,0,1,0,77,30.27l5.39,2.1L80.27,27A16.84,16.84,0,0,0,78.76,4.93ZM67.71,26.12v2.59H65V26.15a10.34,10.34,0,0,1-6.71-2.95l2.19-3.07A8.23,8.23,0,0,0,65,22.57V18.08c-2.93-.74-6.11-1.82-6.11-5.68,0-2.77,2.11-5.13,5.7-5.65A2.7,2.7,0,0,1,65,6.69V4.05h2.69V6.74a10.06,10.06,0,0,1,5.77,2.53l-2.24,3a8,8,0,0,0-3.53-1.85v3.53l.09.5c2.91.74,6.11,1.89,6.11,5.72C73.91,23.28,71.86,25.7,67.71,26.12Z"/><path class="cls-1" d="M65,10.21v3.47c-1.2-.34-2-.8-2-1.62C63,11.09,63.74,10.38,65,10.21Z"/><path class="cls-1" d="M69.82,20.58c0,.88-.71,1.71-2.11,2v-2.8c.06-.32.11-.64.14-1C69,19.2,69.82,19.68,69.82,20.58Z"/></g></g></svg>